<?xml version="1.0" standalone="no"?>
<!DOCTYPE svg PUBLIC "-//W3C//DTD SVG 20010904//EN"
 "http://www.w3.org/TR/2001/REC-SVG-20010904/DTD/svg10.dtd">
<svg version="1.0" xmlns="http://www.w3.org/2000/svg"
 width="150.000000pt" height="150.000000pt" viewBox="0 0 150.000000 150.000000"
 preserveAspectRatio="xMidYMid meet">

<g transform="translate(0.000000,150.000000) scale(0.100000,-0.100000)"
fill="#000000" stroke="none">
<path d="M674 1354 c-53 -26 -78 -98 -55 -159 6 -16 -4 -31 -50 -77 -69 -70
-130 -158 -161 -236 -19 -48 -23 -75 -22 -167 0 -122 15 -174 72 -257 l31 -46
-42 -6 c-100 -15 -139 -63 -145 -182 l-5 -84 443 0 443 0 -5 78 c-7 120 -35
159 -133 184 -64 16 -62 14 -38 41 51 55 93 181 93 277 0 121 -43 221 -151
349 -59 69 -63 73 -77 55 -39 -52 -74 -178 -87 -311 l-7 -73 -40 0 -41 0 7 78
c14 157 57 295 121 384 33 45 34 49 22 85 -23 70 -104 101 -173 67z"/>
</g>
</svg>
