<?xml version="1.0" standalone="no"?>
<!DOCTYPE svg PUBLIC "-//W3C//DTD SVG 20010904//EN"
 "http://www.w3.org/TR/2001/REC-SVG-20010904/DTD/svg10.dtd">
<svg version="1.0" xmlns="http://www.w3.org/2000/svg"
 width="150.000000pt" height="150.000000pt" viewBox="0 0 150.000000 150.000000"
 preserveAspectRatio="xMidYMid meet">

<g transform="translate(0.000000,150.000000) scale(0.100000,-0.100000)"
fill="#000000" stroke="none">
<path d="M660 1330 l0 -50 -50 0 -50 0 0 -90 0 -90 46 0 c43 0 46 -2 40 -22
-3 -13 -6 -26 -6 -30 0 -3 -21 1 -47 9 -27 8 -84 15 -129 16 -69 1 -89 -3
-137 -27 -93 -45 -146 -127 -154 -240 -8 -100 18 -153 142 -287 58 -62 105
-115 105 -118 0 -3 -15 -13 -33 -22 -48 -24 -68 -67 -74 -159 l-6 -80 442 0
441 0 0 73 c0 85 -20 132 -67 162 -18 11 -32 23 -33 28 0 4 43 53 95 108 119
127 148 182 147 278 -1 48 -8 85 -23 121 -28 65 -102 132 -166 151 -59 17
-162 15 -226 -5 -42 -12 -49 -12 -53 0 -2 8 -6 21 -9 29 -3 12 5 15 40 15 l45
0 0 89 0 90 -47 3 -48 3 -3 48 -3 47 -90 0 -89 0 0 -50z m98 13 l-48 -4 0 -50
0 -49 -49 0 -50 0 -4 -47 -3 -48 -2 53 -2 52 50 0 50 0 0 50 0 50 53 -2 52 -2
-47 -3z m130 -100 c-16 -2 -40 -2 -55 0 -16 2 -3 4 27 4 30 0 43 -2 28 -4z
m-303 -430 l35 -17 0 -98 c0 -87 -2 -98 -18 -98 -18 0 -104 83 -136 130 -49
74 27 127 119 83z m455 -3 c23 -23 24 -33 8 -63 -22 -43 -122 -147 -140 -147
-16 0 -18 10 -18 100 l0 101 33 14 c47 21 93 19 117 -5z"/>
</g>
</svg>
