<?xml version="1.0" standalone="no"?>
<!DOCTYPE svg PUBLIC "-//W3C//DTD SVG 20010904//EN"
 "http://www.w3.org/TR/2001/REC-SVG-20010904/DTD/svg10.dtd">
<svg version="1.0" xmlns="http://www.w3.org/2000/svg"
 width="150.000000pt" height="150.000000pt" viewBox="0 0 150.000000 150.000000"
 preserveAspectRatio="xMidYMid meet">

<g transform="translate(0.000000,150.000000) scale(0.100000,-0.100000)"
fill="#000000" stroke="none">
<path d="M557 1322 c-9 -9 -20 -37 -25 -60 -7 -30 -25 -59 -60 -95 -33 -36
-55 -70 -67 -107 -25 -77 -39 -103 -111 -204 -54 -75 -64 -96 -64 -131 0 -30
6 -47 22 -62 37 -33 87 -54 143 -60 l52 -6 31 45 c28 40 37 46 87 56 56 12 96
33 148 80 l27 26 0 -30 c0 -39 -31 -81 -110 -147 -78 -65 -113 -108 -145 -181
-13 -30 -32 -57 -43 -60 -10 -4 -32 -20 -48 -37 -27 -28 -29 -37 -32 -120 l-4
-89 436 0 436 0 0 70 c0 39 -6 85 -14 104 -13 30 -52 70 -78 78 -7 3 -2 37 15
103 36 136 41 213 24 312 -39 217 -189 374 -395 416 -54 11 -69 20 -115 65
-55 55 -83 64 -110 34z"/>
</g>
</svg>
