<?xml version="1.0" standalone="no"?>
<!DOCTYPE svg PUBLIC "-//W3C//DTD SVG 20010904//EN"
 "http://www.w3.org/TR/2001/REC-SVG-20010904/DTD/svg10.dtd">
<svg version="1.0" xmlns="http://www.w3.org/2000/svg"
 width="150.000000pt" height="150.000000pt" viewBox="0 0 150.000000 150.000000"
 preserveAspectRatio="xMidYMid meet">

<g transform="translate(0.000000,150.000000) scale(0.100000,-0.100000)"
fill="#000000" stroke="none">
<path d="M659 1140 c-111 -59 -150 -197 -83 -295 13 -20 24 -38 24 -40 0 -2
-20 -16 -45 -32 -49 -30 -57 -56 -33 -108 9 -21 18 -25 55 -25 38 0 43 -3 43
-23 0 -41 -50 -126 -98 -165 -129 -105 -152 -142 -168 -260 l-7 -52 399 2 399
3 -3 55 c-5 76 -40 149 -92 191 -95 77 -120 103 -144 152 -14 28 -26 61 -26
74 0 20 5 23 39 23 46 0 61 15 68 67 4 36 2 39 -41 66 -25 16 -46 30 -46 32 0
2 11 20 24 39 69 102 21 252 -96 300 -50 21 -125 19 -169 -4z"/>
</g>
</svg>
