<?xml version="1.0" standalone="no"?>
<!DOCTYPE svg PUBLIC "-//W3C//DTD SVG 20010904//EN"
 "http://www.w3.org/TR/2001/REC-SVG-20010904/DTD/svg10.dtd">
<svg version="1.0" xmlns="http://www.w3.org/2000/svg"
 width="150.000000pt" height="150.000000pt" viewBox="0 0 150.000000 150.000000"
 preserveAspectRatio="xMidYMid meet">

<g transform="translate(0.000000,150.000000) scale(0.100000,-0.100000)"
fill="#000000" stroke="none">
<path d="M645 1238 c-2 -7 -8 -42 -12 -78 -7 -56 -11 -65 -30 -68 -17 -3 -22
3 -28 30 -4 18 -11 50 -17 72 l-9 38 -49 -6 c-45 -6 -107 -27 -120 -40 -6 -6
5 -158 15 -216 5 -23 21 -49 49 -75 l42 -40 -26 -224 c-15 -124 -31 -226 -36
-228 -5 -2 -23 -12 -41 -23 -52 -31 -66 -63 -71 -156 l-5 -84 443 0 443 0 -5
84 c-5 93 -19 125 -71 156 -18 11 -36 21 -41 23 -5 2 -21 104 -36 227 l-27
225 43 40 c28 27 44 52 49 75 10 58 21 210 15 216 -13 13 -75 34 -120 40 l-49
6 -9 -38 c-6 -22 -13 -54 -17 -72 -6 -27 -11 -33 -28 -30 -19 3 -23 13 -32 78
l-10 75 -103 3 c-76 2 -104 -1 -107 -10z m78 -33 c-12 -9 -29 -26 -38 -38
l-15 -21 0 27 c0 19 7 30 23 37 37 15 54 12 30 -5z m277 -40 c-26 -28 -35 -27
-25 4 4 13 15 21 27 21 21 0 21 0 -2 -25z m-546 -22 c-7 -21 -13 -71 -14 -112
0 -41 -2 -72 -5 -69 -3 2 -9 47 -14 99 -7 80 -6 96 7 107 31 24 41 15 26 -25z"/>
</g>
</svg>
