<?xml version="1.0" standalone="no"?>
<!DOCTYPE svg PUBLIC "-//W3C//DTD SVG 20010904//EN"
 "http://www.w3.org/TR/2001/REC-SVG-20010904/DTD/svg10.dtd">
<svg version="1.0" xmlns="http://www.w3.org/2000/svg"
 width="150.000000pt" height="150.000000pt" viewBox="0 0 150.000000 150.000000"
 preserveAspectRatio="xMidYMid meet">

<g transform="translate(0.000000,150.000000) scale(0.100000,-0.100000)"
fill="#000000" stroke="none">
<path d="M685 1360 c-56 -23 -92 -110 -65 -159 11 -21 6 -29 -57 -94 -116
-122 -170 -225 -180 -349 -9 -111 26 -237 89 -318 l19 -24 -63 -17 c-95 -26
-128 -77 -128 -201 l0 -58 441 0 442 0 -6 78 c-8 121 -36 159 -134 183 -26 7
-49 13 -51 15 -2 1 10 21 27 44 65 90 94 231 71 345 -17 84 -74 188 -144 262
-32 35 -62 63 -66 63 -4 0 -20 -27 -35 -61 -27 -60 -49 -160 -61 -271 l-5 -58
-41 0 -41 0 7 86 c12 147 61 302 121 380 14 18 25 42 25 54 0 75 -92 131 -165
100z m106 -49 c35 -36 36 -53 4 -95 -64 -84 -113 -245 -122 -403 l-6 -103 71
0 70 0 7 78 c11 136 52 292 76 292 15 0 90 -97 123 -160 19 -36 40 -93 46
-127 22 -111 -14 -258 -84 -340 l-27 -32 -208 -1 -207 0 -27 28 c-57 60 -96
171 -97 273 0 124 80 281 200 393 l61 56 -16 29 c-19 38 -19 71 1 99 34 49 93
54 135 13z m262 -942 c55 -18 84 -58 93 -125 3 -31 2 -60 -3 -65 -5 -5 -170
-8 -409 -7 l-399 3 1 63 c1 51 5 67 25 88 35 38 54 45 133 54 105 13 513 4
559 -11z"/>
</g>
</svg>
