<?xml version="1.0" standalone="no"?>
<!DOCTYPE svg PUBLIC "-//W3C//DTD SVG 20010904//EN"
 "http://www.w3.org/TR/2001/REC-SVG-20010904/DTD/svg10.dtd">
<svg version="1.0" xmlns="http://www.w3.org/2000/svg"
 width="150.000000pt" height="150.000000pt" viewBox="0 0 150.000000 150.000000"
 preserveAspectRatio="xMidYMid meet">

<g transform="translate(0.000000,150.000000) scale(0.100000,-0.100000)"
fill="#000000" stroke="none">
<path d="M660 1330 l0 -50 -50 0 -50 0 0 -90 0 -90 45 0 c45 0 53 -8 40 -43
-5 -12 -13 -12 -58 0 -72 19 -210 13 -261 -12 -97 -47 -150 -136 -150 -255 -1
-101 20 -142 145 -276 54 -58 99 -110 99 -113 0 -4 -15 -14 -33 -23 -45 -21
-65 -67 -69 -158 l-3 -75 438 -3 437 -2 0 72 c0 86 -20 133 -67 163 -18 11
-32 23 -33 27 0 4 43 54 95 110 118 127 145 178 145 268 0 124 -56 220 -154
266 -61 28 -184 33 -261 9 -27 -8 -50 -13 -51 -12 0 1 -4 14 -8 30 -6 26 -5
27 39 27 l45 0 0 90 0 90 -50 0 -50 0 0 50 0 50 -90 0 -90 0 0 -50z m150 -30
l0 -50 50 0 50 0 0 -60 0 -60 -49 0 -48 0 14 -62 c8 -35 15 -64 17 -65 1 -1
31 7 66 18 98 31 210 24 276 -16 71 -45 106 -106 112 -199 6 -100 -14 -140
-139 -273 -55 -58 -99 -108 -99 -111 0 -4 -137 -7 -304 -6 l-305 1 -100 109
c-108 117 -137 164 -147 235 -14 101 51 219 141 260 55 25 174 25 255 0 44
-14 62 -16 65 -8 6 15 24 100 25 110 0 4 -22 7 -50 7 l-50 0 0 60 0 60 50 0
50 0 0 50 0 50 60 0 60 0 0 -50z m199 -921 c116 -18 151 -55 151 -159 l0 -50
-407 2 -408 3 3 60 c8 133 57 152 397 154 110 0 229 -4 264 -10z"/>
<path d="M465 848 c-32 -17 -45 -39 -45 -78 0 -31 11 -49 72 -118 69 -79 73
-82 115 -82 l44 0 -3 122 -3 122 -40 23 c-43 24 -107 30 -140 11z m121 -34
l34 -16 0 -99 c0 -96 -1 -99 -22 -98 -32 1 -148 132 -148 167 0 58 64 80 136
46z"/>
<path d="M899 837 l-44 -24 0 -119 0 -119 43 -3 c40 -3 45 0 95 54 109 119
120 153 68 205 -38 37 -98 40 -162 6z m141 -27 c11 -11 20 -29 20 -40 0 -11
-30 -53 -66 -95 -50 -57 -72 -75 -88 -73 -19 3 -21 10 -24 95 l-3 93 33 20
c43 26 102 26 128 0z"/>
</g>
</svg>
