<?xml version="1.0" standalone="no"?>
<!DOCTYPE svg PUBLIC "-//W3C//DTD SVG 20010904//EN"
 "http://www.w3.org/TR/2001/REC-SVG-20010904/DTD/svg10.dtd">
<svg version="1.0" xmlns="http://www.w3.org/2000/svg"
 width="150.000000pt" height="150.000000pt" viewBox="0 0 150.000000 150.000000"
 preserveAspectRatio="xMidYMid meet">

<g transform="translate(0.000000,150.000000) scale(0.100000,-0.100000)"
fill="#000000" stroke="none">
<path d="M557 1322 c-9 -9 -20 -37 -25 -60 -7 -30 -25 -59 -60 -95 -33 -36
-55 -70 -67 -107 -25 -77 -39 -103 -111 -204 -54 -75 -64 -96 -64 -131 0 -32
6 -47 27 -67 36 -32 103 -58 153 -58 35 0 42 5 69 44 27 38 36 45 78 51 59 9
75 17 136 67 l47 39 0 -27 c0 -38 -30 -77 -124 -160 -64 -56 -89 -85 -119
-144 -22 -42 -50 -81 -65 -91 -58 -35 -67 -55 -70 -150 l-4 -89 436 0 436 0 0
78 c0 87 -19 131 -70 160 -16 9 -30 20 -30 24 0 4 11 49 25 100 34 127 40 205
21 307 -39 215 -188 372 -394 414 -54 11 -69 20 -115 65 -55 55 -83 64 -110
34z m100 -64 c46 -45 61 -54 115 -65 201 -41 338 -187 374 -399 18 -99 12
-160 -25 -299 l-22 -80 -298 0 -299 0 24 46 c14 29 60 81 119 135 103 95 125
126 125 173 0 31 -18 81 -30 81 -3 0 -24 -18 -45 -41 -53 -54 -91 -75 -148
-83 -40 -6 -53 -14 -84 -52 -41 -49 -57 -52 -124 -29 -102 37 -104 74 -11 206
44 62 79 125 97 175 22 60 40 90 77 127 32 33 49 60 54 85 8 47 21 72 37 72 6
0 35 -23 64 -52z m392 -879 c117 -18 151 -53 151 -154 l0 -55 -405 0 -405 0 0
58 c0 31 6 68 13 81 17 34 68 62 130 71 79 11 444 11 516 -1z"/>
<path d="M560 1048 c-11 -18 -20 -36 -20 -39 0 -8 85 -3 100 6 14 8 13 38 -2
53 -23 23 -57 14 -78 -20z"/>
</g>
</svg>
