<?xml version="1.0" standalone="no"?>
<!DOCTYPE svg PUBLIC "-//W3C//DTD SVG 20010904//EN"
 "http://www.w3.org/TR/2001/REC-SVG-20010904/DTD/svg10.dtd">
<svg version="1.0" xmlns="http://www.w3.org/2000/svg"
 width="150.000000pt" height="150.000000pt" viewBox="0 0 150.000000 150.000000"
 preserveAspectRatio="xMidYMid meet">

<g transform="translate(0.000000,150.000000) scale(0.100000,-0.100000)"
fill="#000000" stroke="none">
<path d="M664 1141 c-53 -24 -100 -82 -114 -142 -10 -39 -9 -58 4 -102 9 -30
23 -60 31 -67 23 -19 19 -26 -30 -57 -50 -31 -56 -53 -30 -103 13 -26 21 -30
55 -30 35 0 40 -3 40 -23 0 -13 -12 -46 -26 -74 -24 -49 -49 -75 -144 -152
-56 -45 -90 -118 -90 -193 l0 -58 391 0 392 0 -5 68 c-6 85 -34 139 -95 188
-108 85 -155 147 -164 214 -4 23 0 25 39 28 35 3 45 8 57 32 26 50 20 72 -30
103 -25 16 -45 30 -45 32 0 1 12 24 26 50 77 138 -21 306 -178 305 -24 0 -61
-9 -84 -19z m177 -40 c96 -60 110 -195 29 -271 l-30 -28 60 -38 c63 -39 66
-44 50 -75 -9 -15 -22 -19 -62 -19 l-51 0 7 -42 c15 -96 74 -181 175 -250 50
-35 91 -111 91 -170 l0 -38 -360 0 -360 0 0 31 c0 83 26 122 153 232 60 52
101 122 112 195 l7 42 -55 0 c-55 0 -67 8 -67 44 0 7 25 30 56 50 l55 37 -30
34 c-135 154 49 375 220 266z"/>
</g>
</svg>
