<?xml version="1.0" standalone="no"?>
<!DOCTYPE svg PUBLIC "-//W3C//DTD SVG 20010904//EN"
 "http://www.w3.org/TR/2001/REC-SVG-20010904/DTD/svg10.dtd">
<svg version="1.0" xmlns="http://www.w3.org/2000/svg"
 width="150.000000pt" height="150.000000pt" viewBox="0 0 150.000000 150.000000"
 preserveAspectRatio="xMidYMid meet">

<g transform="translate(0.000000,150.000000) scale(0.100000,-0.100000)"
fill="#000000" stroke="none">
<path d="M523 1325 c-45 -19 -73 -69 -73 -128 0 -43 5 -54 35 -84 39 -39 40
-47 28 -213 l-6 -94 -47 54 c-42 47 -47 57 -40 82 27 94 -87 191 -173 147 -40
-21 -67 -52 -78 -91 -14 -53 16 -121 63 -144 30 -14 40 -32 121 -227 48 -117
87 -215 87 -218 0 -4 -13 -12 -29 -19 -16 -6 -42 -25 -57 -41 -27 -28 -29 -37
-32 -120 l-4 -89 437 0 437 0 -3 84 c-4 96 -20 127 -83 161 -25 13 -35 25 -33
37 3 9 42 106 88 216 75 182 86 201 115 216 60 28 86 126 49 182 -22 34 -74
64 -111 64 -72 0 -146 -90 -127 -154 9 -30 7 -36 -37 -85 l-47 -53 -6 77 c-4
43 -7 104 -7 137 0 53 3 61 32 86 26 24 32 37 35 83 5 66 -17 107 -70 132 -47
23 -82 21 -128 -5 -66 -37 -88 -121 -49 -185 l19 -32 -34 -102 c-19 -56 -36
-104 -39 -106 -2 -2 -20 43 -39 100 l-36 104 19 39 c25 49 25 90 0 132 -39 64
-109 87 -177 57z m107 -30 c60 -31 75 -112 30 -160 -19 -20 -18 -21 35 -173
29 -85 55 -156 58 -158 2 -2 29 66 59 153 l55 158 -23 28 c-34 40 -32 88 5
129 25 28 36 33 76 33 40 0 51 -5 76 -33 33 -37 37 -77 14 -122 -8 -16 -24
-31 -35 -35 -18 -6 -20 -14 -19 -103 1 -53 4 -137 8 -185 l6 -88 80 80 79 81
-12 34 c-18 48 4 100 51 122 100 48 186 -78 108 -157 -16 -16 -36 -29 -44 -29
-9 0 -48 -81 -108 -226 l-94 -226 -280 -1 -281 -2 -94 228 c-52 125 -100 227
-106 227 -23 0 -72 50 -77 77 -12 66 55 135 118 119 59 -15 96 -97 65 -146 -7
-11 10 -34 68 -95 42 -44 80 -81 83 -83 4 -1 10 79 14 180 6 146 5 183 -6 187
-7 2 -23 14 -36 27 -41 41 -27 124 25 157 34 21 65 21 102 2z m379 -916 c119
-21 151 -53 151 -154 l0 -55 -405 0 -405 0 0 54 c0 101 27 131 134 152 79 16
439 17 525 3z"/>
</g>
</svg>
