<?xml version="1.0" standalone="no"?>
<!DOCTYPE svg PUBLIC "-//W3C//DTD SVG 20010904//EN"
 "http://www.w3.org/TR/2001/REC-SVG-20010904/DTD/svg10.dtd">
<svg version="1.0" xmlns="http://www.w3.org/2000/svg"
 width="150.000000pt" height="150.000000pt" viewBox="0 0 150.000000 150.000000"
 preserveAspectRatio="xMidYMid meet">

<g transform="translate(0.000000,150.000000) scale(0.100000,-0.100000)"
fill="#000000" stroke="none">
<path d="M653 1242 c-6 -4 -15 -40 -18 -80 -7 -66 -9 -72 -30 -72 -20 0 -25 9
-40 71 l-18 71 -45 -7 c-26 -4 -64 -14 -85 -23 l-40 -15 7 -105 c4 -57 13
-119 20 -137 12 -28 51 -68 76 -77 5 -2 -3 -105 -18 -232 l-28 -230 -39 -22
c-57 -31 -78 -72 -83 -165 l-5 -79 443 0 443 0 -5 79 c-5 93 -26 134 -83 165
l-39 22 -28 230 c-15 127 -23 230 -18 232 25 9 64 49 76 77 7 18 16 80 20 137
l7 105 -40 15 c-21 9 -59 19 -85 23 l-45 7 -18 -71 c-15 -62 -20 -71 -40 -71
-21 0 -23 6 -30 72 -3 40 -12 76 -18 80 -7 4 -50 8 -97 8 -47 0 -90 -4 -97 -8z
m173 -35 c3 -8 8 -43 12 -78 l7 -64 51 -3 50 -3 13 66 c12 61 15 65 41 65 15
0 42 -5 59 -11 l33 -12 -7 -91 c-8 -104 -23 -145 -64 -169 -24 -14 -40 -15
-112 -7 -109 13 -214 13 -317 0 -136 -17 -164 11 -177 175 l-7 91 26 12 c15 7
42 12 60 12 34 0 34 -1 47 -65 l13 -65 48 0 c55 0 54 -2 63 93 l7 67 74 0 c53
0 76 -4 80 -13z m59 -337 c49 -6 90 -12 92 -14 4 -3 53 -400 53 -426 0 -13
-38 -15 -280 -15 -273 0 -280 0 -280 20 0 35 49 417 54 422 6 7 138 20 211 22
33 0 100 -4 150 -9z m122 -492 c97 -14 137 -47 148 -120 14 -91 53 -83 -405
-83 l-405 0 -3 32 c-5 47 14 106 43 133 17 16 48 28 93 36 87 16 429 17 529 2z"/>
</g>
</svg>
